<svg xmlns="http://www.w3.org/2000/svg" width="18.124" height="18.124" viewBox="0 0 18.124 18.124">
  <path id="Path_7153" data-name="Path 7153" d="M10.985-10.875l5.809-5.809,1.2-1.2a.453.453,0,0,0,0-.641L16.71-19.8a.453.453,0,0,0-.641,0L9.063-12.8,2.055-19.8a.453.453,0,0,0-.641,0L.133-18.523a.453.453,0,0,0,0,.641L7.14-10.875.133-3.868a.453.453,0,0,0,0,.641L1.414-1.946a.453.453,0,0,0,.641,0L9.063-8.953l5.809,5.809,1.2,1.2a.453.453,0,0,0,.641,0l1.282-1.282a.453.453,0,0,0,0-.641Z" transform="translate(0 19.938)" fill="#fff"/>
</svg>
