<svg xmlns="http://www.w3.org/2000/svg" width="23.207" height="25.046" viewBox="0 0 23.207 25.046">
  <path id="blueprint-lock-svgrepo-com" d="M16.959,8.831a4.395,4.395,0,0,1,4.39,4.39v3.046h1.859V22.98a2.068,2.068,0,0,1-2.066,2.066H12.776A2.068,2.068,0,0,1,10.71,22.98V16.267h1.859V13.221A4.395,4.395,0,0,1,16.959,8.831Zm4.9,8.779h-9.81v5.37a.723.723,0,0,0,.722.722h8.365a.723.723,0,0,0,.722-.722v-5.37ZM20.626,4.42V7.367H19.153V5.893H5.893v13.26H7.367v1.473H4.42V4.42Zm-3.668,5.755a3.05,3.05,0,0,0-3.046,3.046v3.046H20V13.221A3.05,3.05,0,0,0,16.959,10.175ZM16.206,0V2.947H14.733V1.473H1.473v13.26H2.947v1.473H0V0Z" fill="#f04405" fill-rule="evenodd"/>
</svg>
