<svg xmlns="http://www.w3.org/2000/svg" width="25.046" height="25.046" viewBox="0 0 25.046 25.046">
  <g id="bank-svgrepo-com" transform="translate(0 0)">
    <path id="Path_5165" data-name="Path 5165" d="M517.334,0V8.326h1.391V1.388h11.34V8.349l.061-.006,1.331.006V0Z" transform="translate(-510.586 0)" fill="#f04405" fill-rule="evenodd"/>
    <path id="Path_5166" data-name="Path 5166" d="M0,212.743H5.357v1.392H1.4v18.791a.7.7,0,0,0,.7.7H20.259a.7.7,0,0,0,.684-.56l2.4-11.968H7.773L4.439,231.742l-1.333-.415L6.749,219.7h18.3l-2.734,13.633a2.1,2.1,0,0,1-2.053,1.679H2.094A2.093,2.093,0,0,1,0,232.926Z" transform="translate(0 -209.968)" fill="#f04405" fill-rule="evenodd"/>
    <path id="Path_5167" data-name="Path 5167" d="M693.333,268.01a2.087,2.087,0,1,1,2.087,2.081A2.084,2.084,0,0,1,693.333,268.01Zm2.087-.694a.694.694,0,1,0,.7.694A.695.695,0,0,0,695.42,267.317Z" transform="translate(-684.289 -262.46)" fill="#f04405" fill-rule="evenodd"/>
    <path id="Path_5168" data-name="Path 5168" d="M1123.479,372.3H1120v1.388h3.479Z" transform="translate(-1105.39 -367.444)" fill="#f04405" fill-rule="evenodd"/>
  </g>
</svg>
