<svg xmlns="http://www.w3.org/2000/svg" width="16.75" height="14.834" viewBox="0 0 16.75 14.834">
  <g id="email-open-svgrepo-com" transform="translate(-2.25 -2.516)">
    <path id="Path_5188" data-name="Path 5188" d="M4,9l5.253,3.94a2.542,2.542,0,0,0,3.05,0L17.556,9" transform="translate(-0.153 -0.873)" fill="none" stroke="#d23a27" stroke-linecap="round" stroke-linejoin="round" stroke-width="1.5"/>
    <path id="Path_5189" data-name="Path 5189" d="M3,8.277A1.694,1.694,0,0,1,3.872,6.8L9.8,3.5a1.694,1.694,0,0,1,1.646,0L17.378,6.8a1.694,1.694,0,0,1,.872,1.481v6.628A1.694,1.694,0,0,1,16.556,16.6H4.694A1.694,1.694,0,0,1,3,14.905Z" transform="translate(0 0)" fill="none" stroke="#d23a27" stroke-linecap="round" stroke-width="1.5"/>
  </g>
</svg>
