<svg xmlns="http://www.w3.org/2000/svg" width="30.964" height="30.774" viewBox="0 0 30.964 30.774">
  <path id="facebook-svgrepo-com" d="M31.968,16.577A15.482,15.482,0,1,0,13.977,31.859l.089.012V21.054H10.135V16.577h3.931V13.168a5.223,5.223,0,0,1-.03-.575A5.465,5.465,0,0,1,19.5,7.128c.146,0,.29.006.434.017h-.019a23.878,23.878,0,0,1,3.6.322l-.138-.02v3.81H21.428a2.176,2.176,0,0,0-.294-.02A2.238,2.238,0,0,0,18.9,13.475c0,.07,0,.139.009.209v2.894H23.2l-.687,4.477H18.9V31.871A15.511,15.511,0,0,0,31.968,16.577h0Z" transform="translate(-1.004 -1.097)" fill="#575555"/>
</svg>
