<svg xmlns="http://www.w3.org/2000/svg" width="37.16" height="41.289" viewBox="0 0 37.16 41.289">
  <g id="stamp" transform="translate(-2 -2)">
    <path id="Path_5178" data-name="Path 5178" d="M12.226,5H6.032a1.032,1.032,0,0,0,0,2.064h6.193a1.032,1.032,0,0,0,0-2.064Z" transform="translate(3.193 3.193)"/>
    <path id="Path_5179" data-name="Path 5179" d="M12.226,8H6.032a1.032,1.032,0,0,0,0,2.064h6.193a1.032,1.032,0,0,0,0-2.064Z" transform="translate(3.193 6.387)"/>
    <path id="Path_5180" data-name="Path 5180" d="M12.226,11H6.032a1.032,1.032,0,0,0,0,2.064h6.193a1.032,1.032,0,0,0,0-2.064Z" transform="translate(3.193 9.58)"/>
    <path id="Path_5181" data-name="Path 5181" d="M35.031,30.9H32.967a6.193,6.193,0,0,1,1.61-3.943c2.519-1.879,4.583-4.067,4.583-7.411a9.311,9.311,0,0,0-8.815-9.29L22.335,2.31A.991.991,0,0,0,21.86,2H5.1A3.1,3.1,0,0,0,2,5.1v35.1a3.1,3.1,0,0,0,3.1,3.1H27.806a3.1,3.1,0,0,0,3.1-3.1V39.16h7.226a1.032,1.032,0,0,0,1.032-1.032v-3.1A4.129,4.129,0,0,0,35.031,30.9ZM37.1,19.548a7.866,7.866,0,0,1-3.737,5.8A8.113,8.113,0,0,0,30.9,30.9H28.838a8.113,8.113,0,0,0-2.395-5.553,7.866,7.866,0,0,1-3.8-5.8,7.226,7.226,0,1,1,14.451,0Zm-9.724-9.29H22.645V5.53Zm1.466,29.935a1.032,1.032,0,0,1-1.032,1.032H5.1a1.032,1.032,0,0,1-1.032-1.032V5.1A1.032,1.032,0,0,1,5.1,4.064H20.58V11.29a1.032,1.032,0,0,0,1.032,1.032h2.5a9.207,9.207,0,0,0-3.53,7.226c0,3.344,2.168,5.533,4.521,7.411A6.379,6.379,0,0,1,26.773,30.9H24.709a4.129,4.129,0,0,0-4.129,4.129v3.1a1.032,1.032,0,0,0,1.032,1.032h7.226ZM37.1,37.1H22.645V35.031a2.064,2.064,0,0,1,2.064-2.064H35.031A2.064,2.064,0,0,1,37.1,35.031Z"/>
    <path id="Path_5182" data-name="Path 5182" d="M9.129,14a4.129,4.129,0,1,0,4.129,4.129A4.129,4.129,0,0,0,9.129,14Zm0,6.193a2.064,2.064,0,1,1,2.064-2.064A2.064,2.064,0,0,1,9.129,20.193Z" transform="translate(3.193 12.773)"/>
  </g>
</svg>
