<svg xmlns="http://www.w3.org/2000/svg" width="37.746" height="37.746" viewBox="0 0 37.746 37.746">
  <g id="bank-svgrepo-com" transform="translate(0)">
    <path id="Path_5165" data-name="Path 5165" d="M517.334,0V12.547h2.1V2.091h17.091V12.582l.092-.009,2.005.009V0Z" transform="translate(-507.164 0)" fill-rule="evenodd"/>
    <path id="Path_5166" data-name="Path 5166" d="M0,212.743H8.074v2.1H2.1V243.16a1.052,1.052,0,0,0,1.052,1.049H30.531a1.055,1.055,0,0,0,1.031-.843l3.616-18.036H11.715L6.689,241.375,4.68,240.75l5.49-17.518H37.746l-4.121,20.545a3.163,3.163,0,0,1-3.094,2.53H3.155A3.155,3.155,0,0,1,0,243.16Z" transform="translate(0 -208.561)" fill-rule="evenodd"/>
    <path id="Path_5167" data-name="Path 5167" d="M693.333,269.066a3.146,3.146,0,1,1,3.146,3.137A3.141,3.141,0,0,1,693.333,269.066Zm3.146-1.046a1.046,1.046,0,1,0,1.049,1.046A1.047,1.047,0,0,0,696.478,268.02Z" transform="translate(-679.703 -260.701)" fill-rule="evenodd"/>
    <path id="Path_5168" data-name="Path 5168" d="M1125.242,372.3H1120v2.091h5.242Z" transform="translate(-1097.982 -364.982)" fill-rule="evenodd"/>
  </g>
</svg>
