<svg xmlns="http://www.w3.org/2000/svg" width="36.891" height="34.841" viewBox="0 0 36.891 34.841">
  <path id="not-graded-svgrepo-com" d="M26.643,77.583h2.049V71.435H26.643Zm0,4.1h2.049V79.632H26.643ZM20.495,59.138v8.2H6.148v-8.2Zm-2.049,2.049H8.2v4.1H18.445Zm-12.3,12.3H16.4V71.435H6.148Zm0,4.1H12.3V75.533H6.148ZM0,52.989V87.83H20.495V85.781H2.049V55.038H24.594V65.286h2.049v-12.3H0ZM27.668,83.731a7.173,7.173,0,1,0-7.173-7.173A7.181,7.181,0,0,0,27.668,83.731Zm0-16.4a9.223,9.223,0,1,1-9.223,9.223A9.234,9.234,0,0,1,27.668,67.336Z" transform="translate(0 -52.989)" fill-rule="evenodd"/>
</svg>
