<svg xmlns="http://www.w3.org/2000/svg" width="36.947" height="36.947" viewBox="0 0 36.947 36.947">
  <path id="assignment-svgrepo-com" d="M28.253,0V10.867H26.08V2.173H2.173v32.6H26.08V30.427h2.173v6.52H0V0Zm2.491,11.186a1.086,1.086,0,0,1,1.539,0l4.347,4.347a1.087,1.087,0,0,1,0,1.537L23.589,30.11a1.094,1.094,0,0,1-.769.317H18.473a1.087,1.087,0,0,1-1.087-1.087V24.994a1.086,1.086,0,0,1,.317-.767Zm-2.988,6.061-8.2,8.2v2.81h2.81l8.2-8.2-2.81-2.81ZM13.04,23.907V26.08H6.52V23.907h6.52Zm4.347-4.347v2.173H6.52V19.56H17.387Zm14.127-6.07-2.221,2.221,2.81,2.81L34.324,16.3l-2.81-2.81Zm-9.78-6.97v8.693H6.52V6.52H21.733ZM19.56,8.694H8.693V13.04H19.56V8.694Z" fill-rule="evenodd"/>
</svg>
