<svg xmlns="http://www.w3.org/2000/svg" width="42.492" height="40.721" viewBox="0 0 42.492 40.721">
  <g id="cloud-computing-cloud-svgrepo-com" transform="translate(0 -10.24)">
    <g id="Group_5262" data-name="Group 5262" transform="translate(0 10.24)">
      <g id="Group_5261" data-name="Group 5261" transform="translate(0 0)">
        <path id="Path_5177" data-name="Path 5177" d="M36.463,23.9A10.533,10.533,0,0,0,26.719,10.24h-.082a10.364,10.364,0,0,0-9.622,6.755,7.693,7.693,0,0,0-5.669-1.735,7.852,7.852,0,0,0-6.533,5.263,7.749,7.749,0,0,0-.336,3.958A8.1,8.1,0,0,0,0,31.733a7.589,7.589,0,0,0,7.967,7.72h1.77V50.961H32.754V39.453h1.77a7.589,7.589,0,0,0,7.967-7.72A7.989,7.989,0,0,0,36.463,23.9Zm-5.48,25.286H11.508V36.8H30.984ZM15.049,35.027V30.6a6.2,6.2,0,0,1,12.393,0v4.426Zm19.475,2.656h-1.77V35.027H29.213V30.6a7.967,7.967,0,0,0-15.934,0v4.426H9.738v2.656H7.967c-3.649,0-6.2-2.447-6.2-5.95a6.3,6.3,0,0,1,4.038-5.9l.756-.282-.211-.778a6.18,6.18,0,0,1,5.167-7.751,5.936,5.936,0,0,1,5.228,2.216l1.166,1.454.391-1.822a8.616,8.616,0,0,1,8.332-6.858H26.7a8.751,8.751,0,0,1,8.448,8.21,8.84,8.84,0,0,1-.7,4.028l-.475,1.111,1.2.118a6.2,6.2,0,0,1,5.542,6.255C40.721,35.236,38.173,37.683,34.525,37.683Z" transform="translate(0 -10.24)"/>
      </g>
    </g>
    <g id="Group_5264" data-name="Group 5264" transform="translate(14.164 40.338)">
      <g id="Group_5263" data-name="Group 5263">
        <rect id="Rectangle_2702" data-name="Rectangle 2702" width="14.164" height="1.77"/>
      </g>
    </g>
    <g id="Group_5266" data-name="Group 5266" transform="translate(16.82 44.765)">
      <g id="Group_5265" data-name="Group 5265">
        <rect id="Rectangle_2703" data-name="Rectangle 2703" width="8.852" height="1.77"/>
      </g>
    </g>
  </g>
</svg>
