<svg id="instagram-round-svgrepo-com" xmlns="http://www.w3.org/2000/svg" width="32.053" height="32.053" viewBox="0 0 32.053 32.053">
  <path id="Path_5159" data-name="Path 5159" d="M70.911,361.447a2.821,2.821,0,1,0-2.811-2.823A2.828,2.828,0,0,0,70.911,361.447Z" transform="translate(-54.884 -342.603)" fill="#575555"/>
  <path id="Path_5160" data-name="Path 5160" d="M170.717,305.217V302.5h-.351l-2.366.006.013,2.717Z" transform="translate(-148.53 -292.64)" fill="#575555"/>
  <path id="Path_5161" data-name="Path 5161" d="M20.83,376.346a4.382,4.382,0,1,1-8.439-1.647H10v6.561a1.536,1.536,0,0,0,1.534,1.534h9.829a1.536,1.536,0,0,0,1.534-1.534V374.7H20.5A4.244,4.244,0,0,1,20.83,376.346Z" transform="translate(-0.422 -360.32)" fill="#575555"/>
  <path id="Path_5162" data-name="Path 5162" d="M-126.973,145A16.025,16.025,0,0,0-143,161.026a16.025,16.025,0,0,0,16.027,16.026,16.025,16.025,0,0,0,16.027-16.026A16.025,16.025,0,0,0-126.973,145Zm8.013,14.38v6.561a3.1,3.1,0,0,1-3.1,3.1h-9.829a3.1,3.1,0,0,1-3.1-3.1v-9.835a3.1,3.1,0,0,1,3.1-3.1h9.829a3.1,3.1,0,0,1,3.1,3.1Z" transform="translate(143 -145)" fill="#575555"/>
</svg>
