<svg xmlns="http://www.w3.org/2000/svg" width="32.053" height="32.053" viewBox="0 0 32.053 32.053">
  <path id="linkedin-round-svgrepo-com_1_" data-name="linkedin-round-svgrepo-com (1)" d="M-126.973,145A16.026,16.026,0,0,0-143,161.027a16.026,16.026,0,0,0,16.027,16.027,16.026,16.026,0,0,0,16.027-16.027A16.026,16.026,0,0,0-126.973,145Zm-4.482,22.732h-3.124v-10h3.124Zm-1.646-11.25h-.025a1.734,1.734,0,0,1-1.866-1.734,1.751,1.751,0,0,1,1.909-1.734,1.744,1.744,0,0,1,1.884,1.734A1.743,1.743,0,0,1-133.1,156.482Zm14.142,11.25H-122.5v-5.171c0-1.352-.551-2.279-1.772-2.279a1.786,1.786,0,0,0-1.69,1.227,2.362,2.362,0,0,0-.075.82v5.4h-3.512s.044-9.165,0-10h3.512v1.571a3.2,3.2,0,0,1,3.118-1.665c2.222,0,3.963,1.44,3.963,4.533Z" transform="translate(143 -145)" fill="#575555"/>
</svg>
