<svg xmlns="http://www.w3.org/2000/svg" xmlns:xlink="http://www.w3.org/1999/xlink" width="123.175" height="40.036" viewBox="0 0 123.175 40.036">
  <defs>
    <clipPath id="clip-path">
      <rect id="Rectangle_2675" data-name="Rectangle 2675" width="33.441" height="40.036" transform="translate(0 0)" fill="none" stroke="#e42413" stroke-width="1"/>
    </clipPath>
  </defs>
  <g id="Group_5282" data-name="Group 5282" transform="translate(-29 -22.465)">
    <g id="Group_5246" data-name="Group 5246" transform="translate(29 22.465)">
      <g id="Group_5245" data-name="Group 5245" clip-path="url(#clip-path)">
        <path id="Path_5163" data-name="Path 5163" d="M10.623,30.494a10.129,10.129,0,0,1-6.369-2.212A6.672,6.672,0,0,1,1.5,22.931V1.5A9.172,9.172,0,0,1,8.9,5.364,14.5,14.5,0,0,1,11.917,14q-.009.312.028,16.493a7.715,7.715,0,0,0,4.488,6.838,10.757,10.757,0,0,0,5.2,1.2q4.185-.147,8.453-.193h1.763q-.267-4.635-3.507-6.534A12.288,12.288,0,0,0,21.6,30.476l-9.453.018m-.2,0a.827.827,0,0,1-.138-.046c-.312,0-.627.016-.945.046" fill="none" stroke="#e42413" stroke-linecap="round" stroke-miterlimit="3" stroke-width="3"/>
      </g>
    </g>
    <path id="Sample" d="M9.575.3c4.5,0,7.725-2.2,7.725-6.75H13.7c0,2.4-1.6,3.7-4.1,3.7C6.425-2.75,4.975-4.6,4.975-8.2v-.775c0-3.525,1.45-5.425,4.65-5.425,2.325,0,3.925,1.35,3.925,3.725H17.3c0-4.55-3.3-6.775-7.725-6.775-5.375,0-8.45,2.875-8.45,8.875C1.125-2.45,4.2.3,9.575.3ZM24.15,0H27.9V-6.9l6.6-10.25H30.425L26.2-10.25h-.125l-4.25-6.9H17.5L24.15-6.9ZM35.9,0h9.825c2.9,0,5.225-1.575,5.225-4.7a4.063,4.063,0,0,0-3.3-4.2V-9a3.922,3.922,0,0,0,2.825-3.925c0-2.525-2.05-4.225-4.775-4.225H35.9Zm3.725-10.225v-3.95H44.7A1.807,1.807,0,0,1,46.65-12.2a1.892,1.892,0,0,1-2.075,1.975Zm0,7.175V-7.325h5.2A2,2,0,0,1,47.1-5.2,1.934,1.934,0,0,1,45-3.05ZM53.2,0H67.05V-3.075H56.95V-7.25h8.8v-3.025h-8.8V-14.1H66.9v-3.05H53.2ZM69.525,0H73.25V-6.25h4.775L81.05,0h4.125l-3.5-6.875A5.206,5.206,0,0,0,84.6-11.8c0-3.175-1.875-5.35-5.675-5.35h-9.4ZM73.25-9.2v-4.925h5.175A2.159,2.159,0,0,1,80.8-11.75,2.283,2.283,0,0,1,78.425-9.2Z" transform="translate(67 53)" fill="#e42313"/>
  </g>
</svg>
