<svg xmlns="http://www.w3.org/2000/svg" width="25.046" height="23.655" viewBox="0 0 25.046 23.655">
  <path id="not-graded-svgrepo-com" d="M18.089,69.687H19.48V65.512H18.089Zm0,2.783H19.48V71.078H18.089ZM13.915,57.164v5.566H4.174V57.164Zm-1.391,1.391H5.566v2.783h6.957ZM4.174,66.9h6.957V65.512H4.174Zm0,2.783H8.349V68.3H4.174ZM0,52.989V76.644H13.915V75.252H1.391V54.38H16.7v6.957h1.391V52.989H0ZM18.785,73.861a4.87,4.87,0,1,0-4.87-4.87A4.875,4.875,0,0,0,18.785,73.861Zm0-11.132a6.262,6.262,0,1,1-6.262,6.262A6.269,6.269,0,0,1,18.785,62.729Z" transform="translate(0 -52.989)" fill="#f04405" fill-rule="evenodd"/>
</svg>
